<?xml version="1.0" encoding="UTF-8" standalone="no"?>
<!DOCTYPE svg PUBLIC "-//W3C//DTD SVG 1.1//EN"
 "http://www.w3.org/Graphics/SVG/1.1/DTD/svg11.dtd">
<!-- Generated by graphviz version 12.1.1 (20240910.0053)
 -->
<!-- Title: INFRA Pages: 1 -->
<svg width="281pt" height="296pt"
 viewBox="0.00 0.00 280.79 296.00" xmlns="http://www.w3.org/2000/svg" xmlns:xlink="http://www.w3.org/1999/xlink">
<g id="graph0" class="graph" transform="scale(1 1) rotate(0) translate(4 292)">
<title>INFRA</title>
<polygon fill="white" stroke="none" points="-4,4 -4,-292 276.79,-292 276.79,4 -4,4"/>
<!-- WorkoutGymKnowledgeBaseDataSource -->
<g id="node1" class="node">
<title>WorkoutGymKnowledgeBaseDataSource</title>
<path fill="#e78f81" stroke="black" stroke-width="2" d="M260.79,-180C260.79,-180 12,-180 12,-180 6,-180 0,-174 0,-168 0,-168 0,-120 0,-120 0,-114 6,-108 12,-108 12,-108 260.79,-108 260.79,-108 266.79,-108 272.79,-114 272.79,-120 272.79,-120 272.79,-168 272.79,-168 272.79,-174 266.79,-180 260.79,-180"/>
<text text-anchor="middle" x="136.4" y="-148.2" font-family="Arial" font-size="14.00">WorkoutGymKnowledgeBaseDataSource</text>
<text text-anchor="middle" x="136.4" y="-131.4" font-family="Arial" font-size="14.00">(AWS::AppSync::DataSource)</text>
</g>
<!-- GraphQLAPI -->
<g id="node2" class="node">
<title>GraphQLAPI</title>
<path fill="#e78f81" stroke="black" stroke-width="2" d="M227.71,-72C227.71,-72 45.08,-72 45.08,-72 39.08,-72 33.08,-66 33.08,-60 33.08,-60 33.08,-12 33.08,-12 33.08,-6 39.08,0 45.08,0 45.08,0 227.71,0 227.71,0 233.71,0 239.71,-6 239.71,-12 239.71,-12 239.71,-60 239.71,-60 239.71,-66 233.71,-72 227.71,-72"/>
<text text-anchor="middle" x="136.4" y="-40.2" font-family="Arial" font-size="14.00">GraphQLAPI</text>
<text text-anchor="middle" x="136.4" y="-23.4" font-family="Arial" font-size="14.00">(AWS::AppSync::GraphQLApi)</text>
</g>
<!-- WorkoutGymKnowledgeBaseDataSource&#45;&gt;GraphQLAPI -->
<g id="edge1" class="edge">
<title>WorkoutGymKnowledgeBaseDataSource&#45;&gt;GraphQLAPI</title>
<path fill="none" stroke="black" d="M136.4,-107.7C136.4,-99.93 136.4,-91.57 136.4,-83.43"/>
<polygon fill="black" stroke="black" points="139.9,-83.66 136.4,-73.66 132.9,-83.66 139.9,-83.66"/>
</g>
<!-- KnowledgeBaseDataSourceIAMPolicy -->
<g id="node3" class="node">
<title>KnowledgeBaseDataSourceIAMPolicy</title>
<path fill="#e6e6e6" stroke="black" stroke-width="2" d="M251.07,-288C251.07,-288 21.72,-288 21.72,-288 15.72,-288 9.72,-282 9.72,-276 9.72,-276 9.72,-228 9.72,-228 9.72,-222 15.72,-216 21.72,-216 21.72,-216 251.07,-216 251.07,-216 257.07,-216 263.07,-222 263.07,-228 263.07,-228 263.07,-276 263.07,-276 263.07,-282 257.07,-288 251.07,-288"/>
<text text-anchor="middle" x="136.4" y="-256.2" font-family="Arial" font-size="14.00">KnowledgeBaseDataSourceIAMPolicy</text>
<text text-anchor="middle" x="136.4" y="-239.4" font-family="Arial" font-size="14.00">(AWS::IAM::Policy)</text>
</g>
<!-- KnowledgeBaseDataSourceIAMPolicy&#45;&gt;WorkoutGymKnowledgeBaseDataSource -->
<g id="edge2" class="edge">
<title>KnowledgeBaseDataSourceIAMPolicy&#45;&gt;WorkoutGymKnowledgeBaseDataSource</title>
<path fill="none" stroke="black" d="M136.4,-215.7C136.4,-207.93 136.4,-199.57 136.4,-191.43"/>
<polygon fill="black" stroke="black" points="139.9,-191.66 136.4,-181.66 132.9,-191.66 139.9,-191.66"/>
</g>
</g>
</svg>
